<svg xmlns="http://www.w3.org/2000/svg" xmlns:xlink="http://www.w3.org/1999/xlink" viewBox="0 0 50 50" fill="#FFFFFF">
  <path d="M25 2C12.308594 2 2 12.308594 2 25C2 37.691406 12.308594 48 25 48C37.691406 48 48 37.691406 48 25C48 12.308594 37.691406 2 25 2 Z M 25 4C36.609375 4 46 13.390625 46 25C46 36.609375 36.609375 46 25 46C13.390625 46 4 36.609375 4 25C4 13.390625 13.390625 4 25 4 Z M 25 7C22.800781 7 21 8.800781 21 11C21 13.199219 22.800781 15 25 15C27.199219 15 29 13.199219 29 11C29 8.800781 27.199219 7 25 7 Z M 25 9C26.117188 9 27 9.882813 27 11C27 12.117188 26.117188 13 25 13C23.882813 13 23 12.117188 23 11C23 9.882813 23.882813 9 25 9 Z M 12.8125 14.4375C11.796875 14.515625 10.867188 15.175781 10.53125 16.1875C10.085938 17.519531 10.804688 18.996094 12.125 19.46875L20 22.28125L20 28.875L17.5 38.90625C17.113281 40.460938 18.304688 42 19.90625 42C20.976563 42 21.945313 41.300781 22.28125 40.28125L25 32.125L27.71875 40.28125C28.054688 41.300781 29.023438 42 30.09375 42C31.695313 42 32.886719 40.460938 32.5 38.90625L30 28.875L30 22.28125L37.875 19.46875C39.195313 18.996094 39.914063 17.519531 39.46875 16.1875C39.019531 14.839844 37.503906 14.113281 36.15625 14.5625L28.875 17L21.125 17L13.84375 14.5625C13.507813 14.449219 13.152344 14.410156 12.8125 14.4375 Z M 12.9375 16.4375C13.015625 16.433594 13.105469 16.441406 13.1875 16.46875L20.6875 18.9375L20.84375 19L29.15625 19L29.3125 18.9375L36.8125 16.46875C37.136719 16.359375 37.453125 16.519531 37.5625 16.84375C37.667969 17.164063 37.503906 17.480469 37.1875 17.59375L28.65625 20.625L28 20.84375L28 29.125L30.5625 39.375C30.648438 39.714844 30.441406 40 30.09375 40C29.875 40 29.660156 39.863281 29.59375 39.65625L26.03125 29.03125C26.03125 29 26.03125 28.96875 26.03125 28.9375C26.070313 28.417969 25.703125 27.953125 25.1875 27.875C25.175781 27.875 25.167969 27.875 25.15625 27.875C25.105469 27.859375 25.054688 27.851563 25 27.84375C24.988281 27.84375 24.980469 27.84375 24.96875 27.84375C24.914063 27.851563 24.863281 27.859375 24.8125 27.875C24.757813 27.882813 24.707031 27.890625 24.65625 27.90625C24.203125 28.050781 23.917969 28.496094 23.96875 28.96875L20.40625 39.65625C20.339844 39.863281 20.125 40 19.90625 40C19.558594 40 19.351563 39.714844 19.4375 39.375L22 29.125L22 20.84375L21.34375 20.625L12.8125 17.59375C12.496094 17.480469 12.332031 17.164063 12.4375 16.84375C12.519531 16.601563 12.707031 16.453125 12.9375 16.4375Z" fill="#FFFFFF" />
</svg>