<svg xmlns="http://www.w3.org/2000/svg" xmlns:xlink="http://www.w3.org/1999/xlink" viewBox="0 0 80 80"><path d="M32 8C29.802666 8 28 9.8026661 28 12L28 14.183594C27.151241 14.48511 26.48511 15.151241 26.183594 16L16.341797 16C11.747261 16 8 19.747261 8 24.341797L8 39L8 68L74 68L74 34L74 24.341797C74 19.747261 70.253826 16 65.660156 16L55.816406 16C55.51489 15.151241 54.848759 14.48511 54 14.183594L54 12C54 9.8026661 52.197334 8 50 8L32 8 z M 32 10L33.277344 10C33.623613 10.595634 34.261054 11 35 11L47 11C47.738946 11 48.376387 10.595634 48.722656 10L50 10C51.116666 10 52 10.883334 52 12L52 14.183594C51.151241 14.48511 50.48511 15.151241 50.183594 16L31.816406 16C31.51489 15.151241 30.848759 14.48511 30 14.183594L30 12C30 10.883334 30.883334 10 32 10 z M 16.908203 18L65.091797 18L65.041016 18.283203L65.652344 18.9375L66 19L66.800781 18.597656L66.886719 18.121094C69.807828 18.689685 72 21.248505 72 24.341797L72 34L72 66L66.908203 66L66.958984 65.716797L66.347656 65.0625L66 65L65.199219 65.402344L65.091797 66L62 66L62 63.167969C62 61.379042 60.850722 59.901518 59.386719 58.693359C57.922716 57.485201 56.059864 56.478398 54.212891 55.642578C50.63373 54.022884 47.217091 53.101183 47 53.042969L47 49.720703C49.105666 48.171727 50.523671 45.810771 50.818359 43L51 43C51.476754 43 51.90193 42.74752 52.150391 42.482422C52.398852 42.217324 52.535773 41.93791 52.640625 41.666016C52.850329 41.122228 52.923828 40.597149 52.923828 40.140625C52.923828 40.310077 52.924821 40.163854 52.962891 40.023438C53.000961 39.883024 53.059891 39.690837 53.121094 39.482422C53.243336 39.066153 53.398019 38.651545 53.398438 38.089844C53.399187 37.524744 53.185721 37.018148 52.847656 36.615234C53.073841 35.204114 53.400391 32.963585 53.400391 30.966797C53.400391 28.158275 52.350135 26.108582 50.921875 24.841797C49.644821 23.709122 48.147111 23.252977 46.808594 23.154297C46.61472 22.833102 46.435417 22.414124 45.589844 21.748047C44.459909 20.857971 42.639225 20 40.03125 20C36.259419 20 32.915319 22.068042 30.494141 24.060547C28.072963 26.053052 26.529297 28.056641 26.529297 28.056641L25.638672 29.208984L27.035156 29.625C27.035156 29.625 27.386519 29.718 27.84375 30.191406C28.300981 30.664809 28.808594 31.468271 28.808594 33.076172C28.808594 34.515851 28.953933 35.769643 29.099609 36.669922C28.791585 37.064666 28.599609 37.551302 28.599609 38.087891C28.599609 38.650747 28.756499 39.065592 28.878906 39.482422C28.940106 39.690837 28.997084 39.883024 29.035156 40.023438C29.073226 40.163851 29.074219 40.310077 29.074219 40.140625C29.074219 40.598209 29.149229 41.12245 29.359375 41.666016C29.464448 41.937799 29.6013 42.217591 29.849609 42.482422C30.097924 42.7473 30.523018 43 31 43L31.181641 43C31.476335 45.810776 32.894341 48.173644 35 49.722656L35 53.042969C34.782909 53.101183 31.36627 54.022884 27.787109 55.642578C25.940136 56.478398 24.077284 57.485201 22.613281 58.693359C21.149278 59.901518 20 61.379042 20 63.167969L20 66L16.908203 66L16.958984 65.716797L16.347656 65.0625L16 65L15.199219 65.402344L15.091797 66L10 66L10 34L10 24.341797C10 21.264757 12.169344 18.713355 15.068359 18.126953L15.041016 18.283203L15.652344 18.9375L16 19L16.800781 18.597656L16.908203 18 z M 16 21L15.199219 21.402344L15.041016 22.283203L15.652344 22.9375L16 23L16.800781 22.597656L16.958984 21.716797L16.347656 21.0625L16 21 z M 66 21L65.199219 21.402344L65.041016 22.283203L65.652344 22.9375L66 23L66.800781 22.597656L66.958984 21.716797L66.347656 21.0625L66 21 z M 40.03125 22C42.212275 22 43.5367 22.674935 44.353516 23.318359C45.170331 23.961784 45.421875 24.505859 45.421875 24.505859L45.695312 25.066406L46.320312 25.066406C47.27272 25.066406 48.58076 25.439426 49.59375 26.337891C50.60674 27.236355 51.400391 28.636319 51.400391 30.966797C51.400391 32.266239 51.199423 33.995002 51 35.427734L51 34C51 28.688889 46.71875 26.683594 46.71875 26.683594L46.048828 26.390625L45.566406 26.941406C45.566406 26.941406 45.063453 27.546358 43.644531 28.150391 A 1.0001 1.0001 0 0 0 44 30.087891 A 1.0001 1.0001 0 0 0 44.582031 29.910156C45.359485 29.560636 45.975208 29.174041 46.386719 28.859375C47.056791 29.202239 49 30.358568 49 34L49 38.744141L50.505859 37.863281C50.584649 37.817181 50.711354 37.772351 50.820312 37.748047C50.871449 37.736642 50.854633 37.738297 50.892578 37.734375L51.224609 37.792969C51.333412 37.861046 51.398593 37.967936 51.398438 38.085938L51.398438 38.087891C51.398438 38.076031 51.316268 38.528002 51.201172 38.919922C51.143622 39.115882 51.084193 39.313898 51.033203 39.501953C50.982213 39.690008 50.923828 39.812173 50.923828 40.140625C50.923828 40.313101 50.863688 40.716352 50.775391 40.945312C50.761021 40.982582 50.761697 40.97382 50.748047 41L49 41L49 42C49 46.022993 46.29575 48.85538 42.433594 49.544922L42.148438 49.595703L41.935547 49.791016C41.679632 50.024103 41.362622 50.160156 41 50.160156C40.63845 50.160156 40.321001 50.022727 40.064453 49.789062L39.851562 49.595703L39.566406 49.544922C35.704408 48.856261 33 46.022993 33 42L33 41L31.251953 41C31.238253 40.97376 31.239029 40.982622 31.224609 40.945312C31.136009 40.716129 31.074219 40.312041 31.074219 40.140625C31.074219 39.812173 31.017789 39.690008 30.966797 39.501953C30.915807 39.313898 30.854421 39.115882 30.796875 38.919922C30.681783 38.528002 30.599609 38.076034 30.599609 38.087891C30.599609 37.896246 30.757662 37.720703 31.025391 37.720703C30.926121 37.720703 31.070731 37.723707 31.179688 37.748047C31.288646 37.772347 31.415352 37.817177 31.494141 37.863281L33 38.744141L33 36C33 35.039037 33.26786 34.290939 33.697266 33.648438 A 1.0001 1.0001 0 0 0 32.921875 32 A 1.0001 1.0001 0 0 0 31.976562 32.636719C31.432629 33.497365 31.094784 34.544911 31.042969 35.722656C31.037269 35.722623 31.031231 35.720703 31.025391 35.720703C31.014039 35.720703 31.00351 35.724451 30.992188 35.724609C30.894808 34.986014 30.808594 34.114804 30.808594 33.076172C30.808594 31.016072 30.069972 29.617331 29.283203 28.802734C29.084227 28.59672 29.05556 28.666992 28.859375 28.525391C29.300735 27.989685 29.986583 27.069528 31.765625 25.605469C34.002697 23.764474 37.012081 22 40.03125 22 z M 16 25L15.199219 25.402344L15.041016 26.283203L15.652344 26.9375L16 27L16.800781 26.597656L16.958984 25.716797L16.347656 25.0625L16 25 z M 66 25L65.199219 25.402344L65.041016 26.283203L65.652344 26.9375L66 27L66.800781 26.597656L66.958984 25.716797L66.347656 25.0625L66 25 z M 40.072266 28.964844L39.271484 29.367188L39.113281 30.248047L39.726562 30.902344L40.072266 30.964844L40.875 30.564453L41.03125 29.681641L40.419922 29.027344L40.072266 28.964844 z M 16 29L15.199219 29.402344L15.041016 30.283203L15.652344 30.9375L16 31L16.800781 30.597656L16.958984 29.716797L16.347656 29.0625L16 29 z M 66 29L65.199219 29.402344L65.041016 30.283203L65.652344 30.9375L66 31L66.800781 30.597656L66.958984 29.716797L66.347656 29.0625L66 29 z M 36.111328 29.609375L35.310547 30.011719L35.152344 30.892578L35.763672 31.546875L36.111328 31.609375L36.912109 31.208984L37.070312 30.326172L36.458984 29.671875L36.111328 29.609375 z M 16 33L15.199219 33.402344L15.041016 34.283203L15.652344 34.9375L16 35L16.800781 34.597656L16.958984 33.716797L16.347656 33.0625L16 33 z M 66 33L65.199219 33.402344L65.041016 34.283203L65.652344 34.9375L66 35L66.800781 34.597656L66.958984 33.716797L66.347656 33.0625L66 33 z M 16 37L15.199219 37.402344L15.041016 38.283203L15.652344 38.9375L16 39L16.800781 38.597656L16.958984 37.716797L16.347656 37.0625L16 37 z M 66 37L65.199219 37.402344L65.041016 38.283203L65.652344 38.9375L66 39L66.800781 38.597656L66.958984 37.716797L66.347656 37.0625L66 37 z M 16 41L15.199219 41.402344L15.041016 42.283203L15.652344 42.9375L16 43L16.800781 42.597656L16.958984 41.716797L16.347656 41.0625L16 41 z M 66 41L65.199219 41.402344L65.041016 42.283203L65.652344 42.9375L66 43L66.800781 42.597656L66.958984 41.716797L66.347656 41.0625L66 41 z M 16 45L15.199219 45.402344L15.041016 46.283203L15.652344 46.9375L16 47L16.800781 46.597656L16.958984 45.716797L16.347656 45.0625L16 45 z M 66 45L65.199219 45.402344L65.041016 46.283203L65.652344 46.9375L66 47L66.800781 46.597656L66.958984 45.716797L66.347656 45.0625L66 45 z M 16 49L15.199219 49.402344L15.041016 50.283203L15.652344 50.9375L16 51L16.800781 50.597656L16.958984 49.716797L16.347656 49.0625L16 49 z M 66 49L65.199219 49.402344L65.041016 50.283203L65.652344 50.9375L66 51L66.800781 50.597656L66.958984 49.716797L66.347656 49.0625L66 49 z M 37 50.857422C37.622147 51.119883 38.281646 51.321597 38.96875 51.460938C39.532193 51.886671 40.2326 52.160156 41 52.160156C41.767887 52.160156 42.468769 51.885988 43.033203 51.458984C43.719458 51.319509 44.378552 51.119652 45 50.857422L45 54.664062C44.88996 54.895114 43.846812 57 41 57C38.153188 57 37.11004 54.895114 37 54.664062L37 50.857422 z M 16 53L15.199219 53.402344L15.041016 54.283203L15.652344 54.9375L16 55L16.800781 54.597656L16.958984 53.716797L16.347656 53.0625L16 53 z M 66 53L65.199219 53.402344L65.041016 54.283203L65.652344 54.9375L66 55L66.800781 54.597656L66.958984 53.716797L66.347656 53.0625L66 53 z M 35 55.132812L35 55.183594L35.095703 55.384766C35.095703 55.384766 36.861465 59 41 59C45.138535 59 46.904297 55.384766 46.904297 55.384766L47 55.183594L47 55.132812C47.828618 55.366243 50.403877 56.11412 53.388672 57.464844C55.141698 58.258149 56.877284 59.21633 58.113281 60.236328C59.349278 61.256326 60 62.273396 60 63.167969L60 66L22 66L22 63.167969C22 62.273396 22.650722 61.256326 23.886719 60.236328C25.122716 59.21633 26.858302 58.258149 28.611328 57.464844C31.596123 56.11412 34.171382 55.366243 35 55.132812 z M 16 57L15.199219 57.402344L15.041016 58.283203L15.652344 58.9375L16 59L16.800781 58.597656L16.958984 57.716797L16.347656 57.0625L16 57 z M 66 57L65.199219 57.402344L65.041016 58.283203L65.652344 58.9375L66 59L66.800781 58.597656L66.958984 57.716797L66.347656 57.0625L66 57 z M 16 61L15.199219 61.402344L15.041016 62.283203L15.652344 62.9375L16 63L16.800781 62.597656L16.958984 61.716797L16.347656 61.0625L16 61 z M 66 61L65.199219 61.402344L65.041016 62.283203L65.652344 62.9375L66 63L66.800781 62.597656L66.958984 61.716797L66.347656 61.0625L66 61 z"/></svg>