<svg xmlns="http://www.w3.org/2000/svg" xmlns:xlink="http://www.w3.org/1999/xlink" viewBox="0 0 50 50"><path d="M25 2 A 1.0001 1.0001 0 0 0 24.845703 2.015625C12.227069 2.100968 2 12.361472 2 25C2 37.691367 12.308633 48 25 48C37.691367 48 48 37.691367 48 25C48 12.362796 37.775013 2.1030941 25.158203 2.015625 A 1.0001 1.0001 0 0 0 25 2 z M 25 4C36.610633 4 46 13.389367 46 25C46 36.610633 36.610633 46 25 46C13.389367 46 4 36.610633 4 25C4 13.389367 13.389367 4 25 4 z M 17 18 A 3 3 0 0 0 14 21 A 3 3 0 0 0 17 24 A 3 3 0 0 0 20 21 A 3 3 0 0 0 17 18 z M 33 18 A 3 3 0 0 0 30 21 A 3 3 0 0 0 33 24 A 3 3 0 0 0 36 21 A 3 3 0 0 0 33 18 z M 11.957031 28.988281 A 1.0001 1.0001 0 0 0 11.185547 30.582031C11.185547 30.582031 16.416667 38 25 38C33.583333 38 38.814453 30.582031 38.814453 30.582031 A 1.0010463 1.0010463 0 0 0 37.185547 29.417969C37.185547 29.417969 32.416667 36 25 36C17.583333 36 12.814453 29.417969 12.814453 29.417969 A 1.0001 1.0001 0 0 0 11.957031 28.988281 z"/></svg>